<?xml version="1.0" encoding="UTF-8"?>
<svg id="torn_frame" data-name="torn frame" xmlns="http://www.w3.org/2000/svg" version="1.1" xmlns:xlink="http://www.w3.org/1999/xlink" viewBox="0 0 638 832">
  <defs>
    <style>
      .cls-1 {
        fill: #c6c0b6;
      }

      .cls-1, .cls-2, .cls-3 {
        stroke: #000;
        stroke-width: 2px;
      }

      .cls-4 {
        fill: #999;
        opacity: .6;
        stroke-width: 0px;
      }

      .cls-2 {
        fill: #bcaa8f;
      }

      .cls-5 {
        filter: url(#AI_GaussianBlur_4);
      }

      .cls-3 {
        fill: none;
      }
    </style>
    <filter id="AI_GaussianBlur_4">
      <feGaussianBlur stdDeviation="3"/>
    </filter>
  </defs>
  <g id="shadow" class="cls-5">
    <polygon class="cls-4" points="600.5 747.9 596.8 774.9 594.8 801.6 579.8 800.1 559.8 790.1 530.8 793.6 523 788.1 507.2 797.1 465.8 801.9 475.2 776.9 475.2 757.1 466 747.9 472 759.9 471.5 776.4 460 801.4 441.5 801.4 439.2 794.1 436 804.4 429.8 804.9 410.5 792.1 400.2 794.4 393 799.4 384.8 802.9 365.5 802.1 360.8 789.1 361.5 781.1 359 768.9 359 788.4 350.5 783.9 359.5 792.6 362.5 802.6 354.5 805.9 342.2 807.6 324.8 806.4 315 803.1 306 803.9 289.5 805.9 286.5 803.9 285.2 799.9 282.5 807.1 252.2 810.6 234.8 805.6 227.2 797.6 220.5 784.6 228.2 756.4 221 772.1 214.5 781.4 212 792.1 204.5 799.4 162.5 812.9 114 819.4 68.8 817.4 96.8 797.1 106.8 779.1 93.2 794.4 64 815.1 54.8 816.1 41.5 812.6 51.8 803.6 55 790.4 53 736.6 57.2 698.1 56.5 674.4 74 672.6 60 668.4 62.8 639.9 45.5 615.4 43 575.1 60.5 543.6 71 509.9 69.8 487.4 63.2 435.6 86.5 441.6 66.5 431.4 72.8 387.9 75 372.6 80 358.4 87.2 357.1 80.8 352.9 73.2 292.6 59 242.6 72 241.4 79 246.1 90 261.1 77.5 236.6 82.5 224.4 71.5 235.6 55.2 232.9 55.2 214.9 58.2 207.9 53.2 203.6 44 179.6 33.5 139.1 65.2 152.6 35 134.9 31 110.4 43 112.4 26.8 95.1 21.2 58.9 23 36.4 43.5 41.6 69 44.4 80.2 49.9 94 55.6 111.5 57.6 116.8 63.1 117.8 79.6 119 84 119 742 598.9 742 600.5 747.9"/>
  </g>
  <g id="torn_page" data-name="torn page">
    <polygon class="cls-2" points="67.5 23.1 93 25.9 104 31.6 117.8 37.1 135.2 39.4 140.5 44.6 141.5 61.1 144.5 71.4 145 59.9 147.5 54.6 148.5 42.4 180.2 34.4 202 25.1 218.2 24.6 237.5 27.4 251.8 33.6 259.2 40.9 268 44.6 273 48.9 275 60.6 278.5 91.6 279.5 73.4 289 79.9 278.5 66.4 276.2 44.6 292 40.1 316.2 37.1 320.5 44.6 324.2 36.6 344 38.6 356 42.4 352 64.1 359.8 42.4 372 46.4 389.5 49.1 400.8 49.1 411.5 46.9 415.8 65.4 415.2 78.4 424.2 50.9 461.8 40.9 474.2 40.9 481.2 53.1 482.8 45.1 488.5 44.1 501.5 44.1 515.2 40.1 523 44.6 523.2 52.6 522.8 62.1 524.5 77.1 528.8 50.4 535 42.4 548.2 37.9 561 37.9 558.2 54.6 560.5 95.9 562 58.4 569 40.1 586.5 43.1 601 40.1 620.8 26.6 623.2 57.1 618.8 91.9 613.2 118.4 607.5 153.6 606.8 190.4 591.2 195.1 606.2 198.4 611 206.4 610.8 245.1 614.5 314.6 608.2 322.9 598.5 326.4 615 332.1 616 339.6 615 345.6 608 351.4 614.5 362.4 618.8 406.1 615.2 423.6 618.8 440.1 588 437.4 608.2 445.4 618.2 463.4 614.5 499.9 618.8 547.6 614 565.9 610 580.1 597.2 587.1 611 590.1 622.2 598.9 628 611.6 630.8 630.6 623 675.6 604.8 675.6 609.2 679.6 623.2 685.4 619.2 703.6 620.8 715.9 624.5 729.4 620.8 756.1 618.8 783.4 603.8 781.4 584 771.6 554.5 775.4 547 769.6 531.2 778.9 489.8 783.6 499 758.4 499 738.6 490 729.4 496 741.6 495.5 757.9 484 782.9 465.5 782.9 463.2 775.6 460 786.1 453.5 786.4 434.2 773.6 424.2 775.9 417 781.1 408.5 784.1 389.5 783.6 384.8 770.6 385.5 762.4 382.8 750.4 382.8 769.9 374.5 765.1 383.5 774.1 386.2 784.1 378.5 787.4 366.2 789.1 348.8 787.9 339 784.6 329.8 785.4 313.2 787.4 310.5 785.4 309.2 781.4 306.2 788.6 276.2 792.1 258.5 787.1 251.2 779.1 244.5 766.1 252 737.9 244.8 753.4 238.2 762.9 236 773.6 228.2 781.1 186.5 794.4 137.8 800.9 92.8 798.9 120.8 778.9 130.8 760.6 117 775.9 88 796.9 78.8 797.6 65.8 794.1 75.5 784.9 78.8 772.1 77 718.1 81.2 679.6 80.8 655.9 98 654.1 84 649.9 86.8 621.4 69.2 596.9 67 556.4 84.2 525.4 95 491.4 93.8 469.1 87 417.1 110.5 422.9 90.8 412.6 96.8 369.4 98.8 354.1 104 339.6 111 338.9 104.8 334.4 97.2 273.9 83 224.4 95.5 223.1 103 227.6 114 242.9 101.5 218.1 106.8 205.9 95.2 217.1 79.2 214.4 79.2 196.6 82.5 189.6 77.2 185.4 68 161.1 57.2 120.9 89.2 134.1 59 116.6 55 91.9 67 94.1 50.5 76.6 45 40.1 47 17.6 67.5 23.1"/>
    <polyline class="cls-1" points="145.2 72.1 146.5 79.6 151.2 87.1 151.2 92.6 153.2 98.1"/>
    <polyline class="cls-1" points="89.8 134.6 93.8 138.1 98.8 139.1 102.8 142.6 105.8 143.9 109 147.1 115.5 150.9"/>
    <polyline class="cls-1" points="106.2 143.9 109.5 144.6 113 144.6"/>
    <line class="cls-3" x1="152" y1="87.1" x2="156" y2="91.1"/>
    <line class="cls-3" x1="289.5" y1="80.4" x2="295.5" y2="84.4"/>
    <polyline class="cls-1" points="278.5 91.9 280.5 102.1 280.5 111.1 275 116.6"/>
    <line class="cls-3" x1="280.5" y1="105.6" x2="283.2" y2="110.4"/>
    <polyline class="cls-1" points="352.2 63.9 350.2 70.6 345.5 76.1 346.2 79.6 344.8 84.4 344.2 87.9"/>
    <polyline class="cls-1" points="345.5 76.1 343.5 77.6 340.8 80.4 340 80.4 338.8 82.4 338 82.4"/>
    <polyline class="cls-1" points="113 241.6 119.8 250.6 122 251.9 125.2 253.4 128 252.6 131.5 256.6 134.2 258.6"/>
    <polyline class="cls-1" points="122.5 252.6 125.2 256.6 126 260.1 126.8 262.1"/>
    <polyline class="cls-1" points="106.8 205.4 111 204.1 112.2 206.1 115 206.1 119.8 208.1"/>
    <line class="cls-3" x1="116.5" y1="204.1" x2="113" y2="206.1"/>
    <polyline class="cls-1" points="106.2 205.4 106.8 200.6 108.2 198.6 109.5 197.1"/>
    <polyline class="cls-1" points="83 189.9 87.8 189.4 89.5 188.4 92.2 188.4"/>
    <polyline class="cls-1" points="67 93.9 71.5 96.1 73.5 98.4 77.2 99.4 78.8 102.4 80 103.1 84.5 107.1"/>
    <polyline class="cls-1" points="77 98.9 80.8 99.4 83 100.1 83.8 100.1 85.8 101.6"/>
    <polyline class="cls-1" points="69.5 23.4 71.5 28.1 75.8 35.4 73.5 38.4 75.8 41.9 76.5 43.4"/>
    <polyline class="cls-1" points="46.8 50.4 53 53.9 56 54.6 58 57.1 63.2 62.6"/>
    <polyline class="cls-1" points="195.8 28.4 195 34.6 195 40.6 197.8 46.1 196.5 47.4 195.8 51.6 195.8 52.4"/>
    <polyline class="cls-1" points="225.2 25.6 226.5 37.1 223.8 44.1"/>
    <polyline class="cls-1" points="306.5 38.6 304.5 45.4 305.8 48.9 305.8 50.1 303 52.9 304.5 58.4 304.5 61.1 304.5 62.6"/>
    <polyline class="cls-1" points="415.2 77.6 414 81.6 411.8 87.9 407.8 90.6 406.2 94.6 406.2 96.1 405 96.6 403 97.4 402.2 99.4"/>
    <polyline class="cls-1" points="413.2 84.4 414.5 91.9 413.2 91.9 412.5 96.1 412.5 96.6 411.8 99.4 411.8 100.1 411.8 104.9"/>
    <polyline class="cls-1" points="414.5 91.1 415.2 92.6 416 96.1 416 96.6 416 97.4 418.8 102.1"/>
    <polyline class="cls-1" points="481 53.6 478.8 59.1 481 64.6 481 68.6"/>
    <polyline class="cls-1" points="452.8 43.4 450.8 48.9 447.5 58.4"/>
    <polyline class="cls-1" points="450 50.1 450 57.6 448.8 62.6"/>
    <polyline class="cls-1" points="524 76.9 523.2 84.4 513 87.1 512.2 91.9 509 93.9"/>
    <line class="cls-3" x1="523.2" y1="84.4" x2="522.5" y2="92.6"/>
    <polyline class="cls-1" points="559.5 96.1 556.8 108.4 558.2 111.1 558.2 116.6 558.2 121.4 558.2 122.6"/>
    <polyline class="cls-1" points="562.2 67.4 563.8 69.4 567 74.9 565.8 78.4 565.8 81.6"/>
    <polyline class="cls-1" points="591 195.1 586.2 194.4 584.2 197.1 581.5 198.6 580 198.6 577.2 199.9"/>
    <polyline class="cls-1" points="600.5 197.1 598.5 200.6 595 204.1"/>
    <polyline class="cls-1" points="607.5 165.9 602 168.4 600.5 171.9 599.2 171.1 597.8 171.9 591 172.6 591 171.9"/>
    <polyline class="cls-1" points="601.2 39.9 599.2 44.9 598.5 49.6 598.5 53.6 598.5 61.1"/>
    <polyline class="cls-1" points="623.2 50.1 619.8 52.9 619 62.6 616.2 63.1"/>
    <polyline class="cls-1" points="597.8 326.4 597.2 326.4 593 327.9 590.2 329.9 574.5 327.1 574.5 327.9 572.5 329.1"/>
    <polyline class="cls-1" points="587.5 437.1 578.8 437.1 576.8 431.6 574 433.9 568.5 432.4 565 430.4"/>
    <polyline class="cls-1" points="607.5 444.6 604.8 447.4 601.2 448.1 599.2 452.1"/>
    <polyline class="cls-1" points="578.8 437.1 577.2 440.6 572.5 441.9"/>
    <polyline class="cls-1" points="616.2 375.6 608 376.4 600.5 377.1 599.2 380.4 591 376.4"/>
    <polyline class="cls-1" points="608 351.1 604.8 351.1 601.2 354.4 599.2 354.4"/>
    <polyline class="cls-1" points="597.8 586.9 593.8 590.9 592.2 591.6 588.2 591.6 581.5 594.4 580.8 592.4"/>
    <polyline class="cls-1" points="595.8 589.6 594.5 587.6 589 587.6 588.2 586.9 582.8 586.1"/>
    <polyline class="cls-1" points="581.5 594.4 580.8 596.4 578 599.9"/>
    <polyline class="cls-1" points="604.8 675.9 595.8 668.9 594.5 670.4 589.5 668.9 584.8 662.9 582.8 663.4 578 661.4"/>
    <polyline class="cls-1" points="591 669.6 589 671.6 575.2 670.9 574 671.6 571.2 674.4 569.8 675.9"/>
    <line class="cls-3" x1="582.8" y1="671.6" x2="580.8" y2="675.1"/>
    <polyline class="cls-1" points="98.8 654.6 100.8 654.6 102 658.6 105.5 657.9 109 654.6 113.8 657.9"/>
    <polyline class="cls-1" points="102.8 658.6 108.2 663.4 112.2 662.9"/>
    <polyline class="cls-1" points="87.8 621.4 92.5 618.9 97 618.9 100.5 616.6"/>
    <polyline class="cls-1" points="111 422.9 114.2 426.9 115.8 433.1 119.2 433.1 126 435.1 131.5 434.4 134.2 432.4 139 436.4 143 435.9"/>
    <polyline class="cls-1" points="134.2 432.4 139 428.9 141 428.9"/>
    <polyline class="cls-1" points="115 433.1 120.5 440.6 123.2 446.1 123.2 448.1"/>
    <polyline class="cls-1" points="112.2 339.4 118.5 345.6 124.5 342.9 128.8 348.9 130.8 348.9 135 348.9"/>
    <line class="cls-3" x1="118.5" y1="345.6" x2="124" y2="351.1"/>
    <polyline class="cls-1" points="111.8 338.6 119.2 337.4 125.2 335.4 126 335.9"/>
    <polyline class="cls-1" points="95.2 490.6 101.2 495.4 104.8 493.9 111 500.9 111.8 500.9 115.8 499.4 117 498.1 119.2 499.4 121.2 501.4"/>
    <polyline class="cls-1" points="100.8 495.4 105.5 502.1 103.5 506.1 106.2 507.6 108.2 513.1"/>
    <polyline class="cls-1" points="78.8 535.6 86 539.6 90.2 541.1 91.8 541.1"/>
    <polyline class="cls-1" points="72 126.9 72.2 129.9 73.8 131.4 74.2 133.6 75.8 134.6"/>
    <polyline class="cls-1" points="147.8 55.1 152 59.1 153.2 61.1 154.8 62.6 154.8 64.6"/>
    <polyline class="cls-1" points="321 45.4 321.5 46.9 322.2 50.1 320.2 52.9 321.5 54.4 321.5 57.1"/>
    <polyline class="cls-1" points="275 59.9 273.8 61.1 273.8 63.9 271 65.9"/>
    <polyline class="cls-1" points="277.8 113.1 277 114.4 278.5 117.1 277.8 117.9"/>
    <polyline class="cls-1" points="610.8 255.4 608.8 255.4 606.8 258.6 604.8 258.6 602 258.6 601.2 256.6 597.8 256.6 596.5 257.4"/>
    <polyline class="cls-1" points="601.2 258.1 601.2 260.1 596.5 261.4 595.8 263.6"/>
    <polyline class="cls-1" points="609.5 321.6 604 318.1 604 317.6 601.2 314.9 600.5 315.4 596.5 315.4 597.2 313.4 595 312.6"/>
    <polyline class="cls-1" points="604 318.1 600 320.9 598.5 320.9 595.8 320.9 592.2 319.6 589 321.6"/>
    <polyline class="cls-1" points="586.2 329.1 582 325.6 581.5 326.4 578.8 323.6 578 324.4"/>
    <polyline class="cls-1" points="593.8 378.4 591.8 379.6 589.5 380.4"/>
    <polyline class="cls-1" points="618.2 536.9 616.2 536.4 612.8 534.4 609.5 534.9 606.8 534.9 605.2 535.6 604 536.9 602 536.9"/>
    <polyline class="cls-1" points="576.8 772.1 575.2 766.1 573.2 763.9 573.2 758.4 573.2 755.9 574.5 754.4"/>
    <line class="cls-3" x1="573.2" y1="758.4" x2="567" y2="752.4"/>
    <polyline class="cls-1" points="498.8 737.9 503.5 731.9 503.5 727.6 508.2 722.4 509 718.9"/>
    <polyline class="cls-1" points="489.8 729.1 489 727.6 487.8 722.9 483 718.1 483 713.4 483 712.6 484.2 705.1 482.2 703.1"/>
    <polyline class="cls-1" points="483 713.4 478.2 711.4 476.8 704.4"/>
    <polyline class="cls-1" points="499.2 757.1 505.5 752.4 506.2 747.6 509.5 741.4 510.2 739.4"/>
    <polyline class="cls-1" points="382.5 750.9 381.8 742.9 381 737.4 381.8 730.4 384.5 726.4"/>
    <polyline class="cls-1" points="381 737.9 378.2 734.6 378.2 732.6 377 729.1 377 724.9"/>
    <polyline class="cls-1" points="375 765.4 373.5 760.6 374.2 753.1 372.2 748.9 370 746.1 370 743.4"/>
    <polyline class="cls-1" points="373.5 761.1 372.8 758.4 372.2 756.4 368.8 755.9 367.5 752.4"/>
    <line class="cls-3" x1="386.5" y1="762.6" x2="388.5" y2="761.1"/>
    <polyline class="cls-1" points="444 779.6 445.2 772.9 442.5 764.6 441.2 756.4"/>
    <polyline class="cls-1" points="252.5 737.4 256.5 726.4 256 721.6 258 716.1 257.2 711.4 258.8 706.6"/>
    <polyline class="cls-1" points="256.5 726.4 261.5 722.9 262 718.9"/>
    <polyline class="cls-1" points="292.2 789.9 291.5 785.1 293.5 781.1 294.2 770.1"/>
    <polyline class="cls-1" points="130.8 760.6 133.5 755.9 136.2 753.1 141.8 749.6 143 744.9 145.8 738.6"/>
    <polyline class="cls-1" points="152 799.6 158.8 792.6 158.8 786.6 161.5 779.1"/>
    <line class="cls-3" x1="79.5" y1="769.9" x2="83.5" y2="765.1"/>
    <polyline class="cls-1" points="545.2 770.9 544.5 768.9 541 764.6 543 763.4 543.8 759.1 543.8 757.9"/>
    <line class="cls-3" x1="541" y1="764.6" x2="539" y2="762.6"/>
  </g>
</svg>